<svg width="109" height="109" viewBox="0 0 109 109" fill="none" xmlns="http://www.w3.org/2000/svg">
<path d="M80.1647 51.5191L89.6706 42.0131L66.9654 19.3079L57.4594 28.8138L32.3928 3.80777C27.6701 -0.914923 19.9806 -0.914923 15.2579 3.80777L3.75393 15.3118C-0.968758 20.0345 -0.968758 27.724 3.75393 32.4467L28.76 57.4527L0 86.2732V108.979H22.7053L51.5258 80.158L76.5318 105.164C82.2838 110.916 90.0339 108.797 93.6667 105.164L105.171 93.66C109.893 88.9373 109.893 81.2478 105.171 76.5251L80.1647 51.5191ZM37.4183 48.855L12.3517 23.8489L23.7951 12.3449L31.4846 20.0345L24.34 27.2396L32.8772 35.7768L40.0823 28.5716L48.8617 37.351L37.4183 48.855ZM85.1296 96.6268L60.1235 71.6208L71.6275 60.1168L80.4069 68.8962L73.2017 76.1013L81.7389 84.6385L88.944 77.4333L96.6335 85.1228L85.1296 96.6268ZM107.229 24.4544C107.791 23.8943 108.236 23.2289 108.54 22.4965C108.844 21.764 109 20.9788 109 20.1858C109 19.3928 108.844 18.6077 108.54 17.8752C108.236 17.1427 107.791 16.4774 107.229 15.9172L93.0613 1.74916C90.2155 -1.09657 86.28 -0.00671382 84.5241 1.74916L73.4439 12.8293L96.1492 35.5346L107.229 24.4544Z" fill="black"/>
</svg>
