<svg width="110" height="110" viewBox="0 0 110 110" fill="none" xmlns="http://www.w3.org/2000/svg">
<path d="M71.5 29.095V5.5C71.5 2.475 69.025 0 66 0H44C40.975 0 38.5 2.475 38.5 5.5V29.095C38.5 29.81 38.775 30.525 39.325 31.02L53.075 44.77C54.175 45.87 55.88 45.87 56.98 44.77L70.73 31.02C71.225 30.525 71.5 29.865 71.5 29.095ZM29.095 38.5H5.5C2.475 38.5 0 40.975 0 44V66C0 69.025 2.475 71.5 5.5 71.5H29.095C29.81 71.5 30.525 71.225 31.02 70.675L44.77 56.925C45.87 55.825 45.87 54.12 44.77 53.02L31.02 39.27C30.7671 39.0192 30.4664 38.8217 30.1357 38.6895C29.805 38.5572 29.4511 38.4927 29.095 38.5ZM38.5 80.905V104.5C38.5 107.525 40.975 110 44 110H66C69.025 110 71.5 107.525 71.5 104.5V80.905C71.5044 80.5443 71.4333 80.1867 71.2912 79.8552C71.1491 79.5237 70.9392 79.2256 70.675 78.98L56.925 65.23C55.825 64.13 54.12 64.13 53.02 65.23L39.27 78.98C38.775 79.475 38.5 80.135 38.5 80.905ZM78.925 39.325L65.175 53.075C64.075 54.175 64.075 55.88 65.175 56.98L78.925 70.73C79.42 71.225 80.135 71.555 80.85 71.555H104.5C107.525 71.555 110 69.08 110 66.055V44.055C110 41.03 107.525 38.555 104.5 38.555H80.905C80.5384 38.5271 80.1702 38.5818 79.8275 38.7151C79.4849 38.8484 79.1765 39.0568 78.925 39.325Z" fill="black"/>
</svg>
