<svg width="110" height="60" viewBox="0 0 110 60" fill="none" xmlns="http://www.w3.org/2000/svg">
<path d="M100 0H10C4.5 0 0 4.5 0 10V50C0 55.5 4.5 60 10 60H100C105.5 60 110 55.5 110 50V10C110 4.5 105.5 0 100 0ZM50 35H35V50H25V35H10V25H25V10H35V25H50V35ZM72.5 45C68.35 45 65 41.65 65 37.5C65 33.35 68.35 30 72.5 30C76.65 30 80 33.35 80 37.5C80 41.65 76.65 45 72.5 45ZM92.5 30C88.35 30 85 26.65 85 22.5C85 18.35 88.35 15 92.5 15C96.65 15 100 18.35 100 22.5C100 26.65 96.65 30 92.5 30Z" fill="black"/>
</svg>
