<svg width="110" height="110" viewBox="0 0 110 110" fill="none" xmlns="http://www.w3.org/2000/svg">
<path d="M100 25H10C4.5 25 0 29.5 0 35V75C0 80.5 4.5 85 10 85H100C105.5 85 110 80.5 110 75V35C110 29.5 105.5 25 100 25ZM50 60H35V75H25V60H10V50H25V35H35V50H50V60ZM72.5 70C68.35 70 65 66.65 65 62.5C65 58.35 68.35 55 72.5 55C76.65 55 80 58.35 80 62.5C80 66.65 76.65 70 72.5 70ZM92.5 55C88.35 55 85 51.65 85 47.5C85 43.35 88.35 40 92.5 40C96.65 40 100 43.35 100 47.5C100 51.65 96.65 55 92.5 55Z" fill="black"/>
</svg>
