<svg width="110" height="110" viewBox="0 0 110 110" fill="none" xmlns="http://www.w3.org/2000/svg">
<path fill-rule="evenodd" clip-rule="evenodd" d="M23.5324 8.02256H86.169V39.3409C88.8389 39.6149 91.4696 40.2178 93.9986 41.1417V0.192993H15.7028V66.5878L23.5324 52.886V8.02256ZM40.2877 70.6591L31.362 55L23.5324 68.7017L17.9734 78.4887L0.0437012 109.807H62.6803L44.7506 78.4887L40.2877 70.6591ZM13.5106 101.977L26.9774 78.4887L31.362 70.6591L35.7465 78.4887L49.2134 101.977H13.5106ZM67.0335 51.7899C70.024 49.7264 73.3951 48.2783 76.9504 47.5297C80.5058 46.7811 84.1745 46.747 87.7432 47.4294C91.3119 48.1118 94.7092 49.497 97.7375 51.5045C100.766 53.512 103.365 56.1017 105.383 59.1229C107.401 62.144 108.799 65.5364 109.494 69.1026C110.189 72.6688 110.168 76.3377 109.432 79.8957C108.696 83.4537 107.26 86.8298 105.207 89.8277C103.154 92.8256 100.526 95.3853 97.4749 97.358C91.4314 101.265 84.0935 102.638 77.0461 101.181C69.9987 99.7232 63.8075 95.5518 59.8099 89.5677C55.8122 83.5836 54.329 76.2671 55.6806 69.1986C57.0322 62.1301 61.1101 55.8769 67.0335 51.7899ZM71.3789 90.8516C73.5154 92.3076 75.9192 93.326 78.4515 93.8478C80.9837 94.3697 83.5942 94.3847 86.1323 93.892C88.6704 93.3992 91.0857 92.4086 93.2388 90.9772C95.3919 89.5458 97.2401 87.7021 98.6766 85.5525C100.113 83.4028 101.11 80.9899 101.608 78.453C102.107 75.9161 102.098 73.3055 101.583 70.772C101.067 68.2385 100.054 65.8323 98.6035 63.6923C97.1526 61.5523 95.2921 59.721 93.1295 58.3041C88.813 55.4759 83.5543 54.4668 78.4975 55.4962C73.4407 56.5257 68.995 59.5104 66.1277 63.801C63.2605 68.0916 62.2035 73.3409 63.187 78.4069C64.1704 83.4728 67.1146 87.9454 71.3789 90.8516Z" fill="black"/>
</svg>
